<?xml version="1.0" encoding="utf-8"?>
<!-- Generator: Adobe Illustrator 26.5.0, SVG Export Plug-In . SVG Version: 6.00 Build 0)  -->
<svg version="1.1" id="Layer_1" xmlns="http://www.w3.org/2000/svg" xmlns:xlink="http://www.w3.org/1999/xlink" x="0px" y="0px"
	 viewBox="0 0 48 48" style="enable-background:new 0 0 48 48;" xml:space="preserve">
<style type="text/css">
	.st0{fill:#FFFFFF;}
</style>
<path class="st0" d="M14.3,12.1c-0.7,0-1.3,0.2-1.8,0.7c-0.5,0.5-0.7,1.1-0.7,1.8c0,0.7,0.2,1.3,0.7,1.8c0.5,0.5,1.1,0.7,1.8,0.7
	c0.7,0,1.3-0.2,1.8-0.7c0.5-0.5,0.7-1.1,0.7-1.8c0-0.7-0.2-1.3-0.7-1.8C15.6,12.4,15,12.1,14.3,12.1z M14.3,32.8
	c-0.7,0-1.3,0.2-1.8,0.7c-0.5,0.5-0.7,1.1-0.7,1.8c0,0.7,0.2,1.3,0.7,1.8c0.5,0.5,1.1,0.7,1.8,0.7c0.7,0,1.3-0.2,1.8-0.7
	c0.5-0.5,0.7-1.1,0.7-1.8c0-0.7-0.2-1.3-0.7-1.8C15.6,33.1,15,32.8,14.3,32.8z M7.7,6.1h32.5c0.5,0,1,0.2,1.3,0.5
	C41.8,6.8,42,7.3,42,7.8v13.4c0,0.6-0.2,1.1-0.5,1.5c-0.3,0.4-0.7,0.6-1.3,0.6H7.7c-0.5,0-0.9-0.2-1.2-0.6C6.2,22.3,6,21.8,6,21.2
	V7.8c0-0.5,0.2-1,0.5-1.3C6.8,6.2,7.2,6.1,7.7,6.1z M9,9.1v11.2h30V9.1H9z M7.7,26.7H40c0.5,0,1,0.2,1.4,0.6
	c0.4,0.4,0.6,0.9,0.6,1.4V42c0,0.7-0.2,1.2-0.6,1.5C41,43.8,40.5,44,40,44H8c-0.5,0-1-0.2-1.4-0.5C6.2,43.1,6,42.6,6,42V28.8
	c0-0.5,0.2-1,0.5-1.4S7.2,26.7,7.7,26.7z M9,29.7V41h30V29.7H9z M9,9.1v11.2V9.1z M9,29.7V41V29.7z"/>
</svg>
