<?xml version="1.0" encoding="utf-8"?>
<!-- Generator: Adobe Illustrator 26.5.0, SVG Export Plug-In . SVG Version: 6.00 Build 0)  -->
<svg version="1.1" id="Layer_1" xmlns="http://www.w3.org/2000/svg" xmlns:xlink="http://www.w3.org/1999/xlink" x="0px" y="0px"
	 viewBox="0 0 48 48" style="enable-background:new 0 0 48 48;" xml:space="preserve">
<style type="text/css">
	.st0{fill:#FFFFFF;}
</style>
<path class="st0" d="M24,42l-2-1.8c-3.5-3.2-6.4-6-8.7-8.4c-2.3-2.3-4.1-4.4-5.5-6.3c-1.4-1.9-2.3-3.5-2.9-5S4,17.4,4,15.9
	c0-3,1-5.5,3-7.5c2-2,4.5-3,7.5-3c1.9,0,3.7,0.4,5.3,1.3c1.6,0.9,3,2.2,4.2,3.9c1.4-1.8,2.9-3.1,4.5-4s3.2-1.3,5-1.3
	c3,0,5.5,1,7.5,3c2,2,3,4.5,3,7.5c0,1.5-0.3,3-0.8,4.5c-0.5,1.5-1.5,3.2-2.9,5c-1.4,1.8-3.2,3.9-5.5,6.3c-2.3,2.3-5.2,5.1-8.7,8.4
	L24,42z M24,38c3.4-3.1,6.2-5.8,8.3-8c2.2-2.2,3.9-4.2,5.2-5.8c1.3-1.7,2.2-3.2,2.7-4.5c0.5-1.3,0.8-2.6,0.8-3.9
	c0-2.2-0.7-4-2.1-5.4c-1.4-1.4-3.2-2.1-5.4-2.1c-1.7,0-3.3,0.5-4.8,1.6c-1.5,1.1-2.6,2.5-3.5,4.4h-2.5c-0.9-1.9-2-3.3-3.5-4.4
	c-1.5-1.1-3.1-1.6-4.8-1.6c-2.2,0-4,0.7-5.4,2.1S7,13.7,7,15.9c0,1.3,0.3,2.6,0.8,3.9c0.5,1.3,1.4,2.8,2.7,4.5s3,3.6,5.2,5.8
	S20.7,34.9,24,38z"/>
</svg>
