<?xml version="1.0" encoding="utf-8"?>
<!-- Generator: Adobe Illustrator 26.5.0, SVG Export Plug-In . SVG Version: 6.00 Build 0)  -->
<svg version="1.1" id="Layer_1" xmlns="http://www.w3.org/2000/svg" xmlns:xlink="http://www.w3.org/1999/xlink" x="0px" y="0px"
	 viewBox="0 0 48 48" style="enable-background:new 0 0 48 48;" xml:space="preserve">
<style type="text/css">
	.st0{fill:#FFFFFF;}
</style>
<path class="st0" d="M9,32.5l13.5,7.8V24.9L9,17V32.5z M25.5,40.3L39,32.5V17l-13.5,7.9V40.3z M10.7,14.6L24,22.3l13.3-7.8L24,6.8
	L10.7,14.6z M6,34.2V15.5c0-0.5,0.1-1,0.4-1.5c0.3-0.5,0.6-0.8,1.1-1.1l15-8.6C23,4,23.5,3.8,24,3.8s1,0.1,1.5,0.4l15,8.6
	c0.5,0.3,0.8,0.6,1.1,1.1c0.3,0.5,0.4,1,0.4,1.5v17c0,0.5-0.1,1-0.4,1.5c-0.3,0.5-0.6,0.8-1.1,1.1l-15,8.6c-0.5,0.3-1,0.4-1.5,0.4
	s-1-0.1-1.5-0.4L6,34.2z"/>
</svg>
